<svg width="226" height="252" viewBox="0 0 226 252" fill="none" xmlns="http://www.w3.org/2000/svg">
<path d="M103.625 227.875V131.312L19.25 82.5625V179.125L103.625 227.875ZM122.375 227.875L206.75 179.125V82.25L122.375 131.262V227.875ZM113 115.375L196.125 66.9375L113 18.8125L29.5625 66.9375L113 115.375ZM9.875 195.375C6.90625 193.62 4.60156 191.306 2.96094 188.433C1.32031 185.561 0.5 182.458 0.5 179.125V72.875C0.5 69.5417 1.32031 66.4388 2.96094 63.5666C4.60156 60.6943 6.90625 58.3804 9.875 56.625L103.625 2.5625C106.61 0.895833 109.752 0.0625 113.051 0.0625C116.35 0.0625 119.458 0.895833 122.375 2.5625L216.125 56.625C219.094 58.3804 221.398 60.6943 223.039 63.5666C224.68 66.4388 225.5 69.5417 225.5 72.875V179.125C225.5 182.458 224.68 185.561 223.039 188.433C221.398 191.306 219.094 193.62 216.125 195.375L122.375 249.437C119.39 251.104 116.248 251.937 112.949 251.937C109.65 251.937 106.542 251.104 103.625 249.437L9.875 195.375Z" fill="#4169E1"/>
</svg>
